<?xml version="1.0" encoding="UTF-8"?><svg id="Layer_1" xmlns="http://www.w3.org/2000/svg" viewBox="0 0 116.55 95.11"><defs><style>.cls-1{fill:#08283d;}</style></defs><path class="cls-1" d="M0,46.72v.56H2.14v5.41h.65v-5.41h2.14v-.56H0Z"/><path class="cls-1" d="M13.05,52.68h-.75v-2.89h-3.36v2.89h-.75v-5.97h.75v2.42h3.36v-2.42h.75v5.97h0Z"/><path class="cls-1" d="M20.79,47.27h-3.17v1.86h2.42v.65h-2.42v2.33h3.36v.56h-4.01v-5.97h3.82v.56h0Z"/><path class="cls-1" d="M47.46,47.83l-.56,.47c-.47-.65-1.12-1.03-1.96-1.03-1.4,0-2.42,1.03-2.42,2.42s1.03,2.42,2.42,2.42c.84,0,1.49-.37,1.96-1.03l.56,.47c-.47,.75-1.4,1.31-2.52,1.31-1.77,0-3.17-1.4-3.17-3.17s1.4-3.17,3.17-3.17c1.12,.09,1.96,.56,2.52,1.31"/><path class="cls-1" d="M51.28,49.7c0,1.4,1.03,2.52,2.42,2.52s2.42-1.03,2.42-2.52c0-1.4-1.03-2.42-2.42-2.42s-2.42,1.03-2.42,2.42m5.5,0c0,1.77-1.4,3.17-3.17,3.17s-3.17-1.4-3.17-3.17,1.4-3.17,3.17-3.17c1.77,.09,3.17,1.4,3.17,3.17"/><path class="cls-1" d="M61.07,52.12h2.8v.56h-3.54v-5.97h.75v5.41Z"/><path class="cls-1" d="M67.88,52.12h2.89v.56h-3.54v-5.97h.65v5.41Z"/><path class="cls-1" d="M77.95,47.27h-3.17v1.86h2.42v.65h-2.42v2.33h3.26v.56h-4.01v-5.97h3.92v.56Z"/><path class="cls-1" d="M86.62,47.83l-.56,.47c-.47-.65-1.12-1.03-1.96-1.03-1.4,0-2.42,1.03-2.42,2.42s1.03,2.42,2.42,2.42c.84,0,1.49-.37,1.96-1.03l.56,.47c-.47,.75-1.4,1.31-2.52,1.31-1.77,0-3.17-1.4-3.17-3.17s1.4-3.17,3.17-3.17c1.12,.09,2.05,.56,2.52,1.31"/><path class="cls-1" d="M94.46,47.27h-2.14v5.41h-.65v-5.41h-2.14v-.56h4.94v.56Z"/><path class="cls-1" d="M97.72,46.72h.75v6.06h-.75v-6.06Z"/><path class="cls-1" d="M102.66,49.7c0,1.4,1.03,2.52,2.42,2.52s2.42-1.03,2.42-2.52c0-1.4-1.03-2.42-2.42-2.42s-2.42,1.03-2.42,2.42m5.59,0c0,1.77-1.4,3.17-3.17,3.17s-3.17-1.4-3.17-3.17,1.4-3.17,3.17-3.17c1.68,.09,3.17,1.4,3.17,3.17"/><path class="cls-1" d="M111.71,46.62v6.06h.75v-4.48l3.82,4.66h.28v-6.15h-.75v4.48l-3.82-4.57h-.28Z"/><path class="cls-1" d="M28.81,10.63c-.37-.09-.93-.37-1.03-.47-1.59-1.59-1.68-2.33-1.68-2.7,0-.47-.65-1.31-.65-1.86,0-.19,.09-.28,.19-.37v-.84c0-.65,.28-.93,.28-1.77,0-1.96,2.89-2.61,4.76-2.61s1.77,.37,2.52,.37c.19,0,2.14,1.03,2.24,1.03,.19,0,.56,.28,.56,.37,.75,1.4,.93,2.33,.93,3.17,0,.09,0,.37-.09,.65l-.28,2.05c-.28,.93-1.03,1.31-1.49,1.86-.47,1.77-1.59,1.4-3.26,1.59-.37,0-.65-.09-1.59-.09-.28,.09-1.4-.37-1.4-.37M6.62,92.22c.84-.19,1.31-.47,1.86-.75,.28-.09,3.45-2.05,3.64-2.42,1.12-.47,2.7-1.96,3.17-2.8l1.49-1.4s2.52-2.52,3.73-4.66c1.03-2.05,2.52-4.38,3.45-7.93,0-.47,.19-1.03,.47-1.31,0-1.4,.65-2.24,.84-3.45,.09-.47,.19-1.03,.37-1.4,.75-2.14,.75-5.69,1.31-8.3v-.47c0-.28-.09-.37-.19-.37-.37,0-1.03,1.03-1.68,1.68-.84,.75-1.21,.47-1.21,1.03-.47,.37-2.89,2.33-3.92,3.36l-2.89,2.89c-.19,.19-1.68,2.42-1.77,2.42-.47,0-1.31,1.96-1.68,2.24-.65,.47-1.96,2.24-1.96,2.61,0,.19-1.03,1.4-1.03,1.4-.93,1.31-2.24,3.08-2.8,4.48-.37,.75-.65,1.31-1.31,2.8l-.75,2.42c-.56,1.4-1.03,3.54-1.03,5.04,0,1.96,.09,1.59,.75,2.52,.47,.28,.56,.19,1.12,.37M75.15,18.84c1.12-.47,1.96-1.03,3.17-1.12h.47c.28,0,.75,0,.84,.47,.37,.37,1.31,.19,1.68,1.21,.09,.19,.09,.47,.09,.93,.09,.37,.19,.65,.19,.84,0,1.59-1.03,1.86-2.61,1.86-.09-.28-2.52-.37-2.89-.47-.28,.19-1.59,.47-1.68,.47-.47,.19-3.08,1.12-3.54,1.12-.19,0-.28,0-.19,.09,0,0-.47,.47-1.4,.75-.75,0-1.4,.65-2.14,1.03-.47,.19-1.03,.56-1.96,1.03-1.12,.47-1.96,.93-2.89,1.77,.09,.09-2.14,1.03-2.98,1.68-1.03,.37-2.42,1.21-3.36,1.86l-1.59,.75c-.65,.09-1.31,1.03-3.54,2.52l-1.59,1.03c-1.96,1.31-2.33,1.59-4.1,3.45-1.03,1.03-2.52,2.42-3.64,3.26l-1.03,.75c-1.96,2.24-2.05,2.33-2.52,2.33l-.75,.75c-.47,.75-1.03,1.4-1.59,1.49-.47,1.03-.84,1.68-1.68,2.14l-1.03,3.73c-.19,.75-.75,5.31-1.03,5.69,0,.37-.56,1.68-.56,1.96,0,.19-.28,1.21-.28,1.68l-.47,1.4c0,.19-.19,1.4-.93,3.82-.56,1.4-.28,1.03-.56,1.96,0,.28-.37,1.03-1.03,3.08-.47,1.31-.56,1.31-.93,2.52-.65,1.86-2.24,3.26-3.17,5.22-.56,.93-.93,1.49-1.77,2.61-.84,1.31-2.05,2.05-4.29,4.76-1.12,1.49-1.77,1.49-2.8,2.24,0,0-1.68,1.68-2.61,1.68-.09,0-.75,.47-3.45,1.68-.19,.19-.56,.19-.93,.19-.47,.09-.93,.09-1.4,.09-2.33,0-3.82-.84-4.76-2.7-.19,0-.47-.47-.47-.65l-.19-.75v-1.4c0-3.26,.65-5.41,1.68-8.02,.19-.19,1.31-2.42,1.21-2.42,0-.28,1.4-2.24,1.77-3.08,.19-.65,.56-1.4,1.49-2.89l2.61-3.64c0-.19,1.03-1.4,1.03-1.31,.19,0,.37-.56,2.24-2.52l2.98-3.17c.65-1.31,3.08-3.36,4.57-4.66l2.33-1.96c1.31-1.21,1.4-1.21,2.52-1.77l.19-.09c.84-.84,.84,0,1.03-2.89,.19-3.64,.56-4.66,.56-8.02,0-2.05-.19-3.36-.19-4.76l.09-2.61c0-.19-.19-1.68-.28-1.77l.19-1.4-.19-.19c-.09-1.4-.09-2.89-.09-4.1v-2.24c0-1.68,.28-4.66,.28-5.78,.09-.28,.75-1.4,.75-1.49,.47-.75,2.52-1.4,3.73-1.4h.47c.19,0,1.12,.37,1.31,.37s.75,.47,1.03,.56c.84,.47,1.4,1.31,1.96,2.89,.28,1.4,.65,2.42,.65,4.1,0,.75,.19,1.68,.19,2.61-.09,4.38-.19,5.22-.37,6.43,0,2.52-.65,5.22-.93,8.02-.47,.93-.65,1.86-.65,2.98l1.12-1.49c.47-.47,1.21-1.12,1.59-1.31,0,0,.09,0,.19-.09,.09-.19,.19-.37,.37-.47,.47-.37,.75-.75,.84-.75l1.12-.93c.28-.47,1.4-1.21,1.77-1.59,1.49-1.4,2.89-2.7,4.38-3.73,.56-.09,3.45-3.08,4.94-3.73l1.59-1.03c1.21-.37,4.48-3.08,8.86-5.13,.09,0,4.66-2.52,4.76-2.52,0,0,2.05-.93,2.05-.84,.28-.09,1.68-1.03,2.14-1.03l.56-.28c.09-.19,.84-.65,1.86-.75,.56-.28,1.59-.93,1.59-.93"/></svg>